<svg width="80" height="79" viewBox="0 0 80 79" fill="none" xmlns="http://www.w3.org/2000/svg">
<path d="M73.0056 79H59.9175C58.5587 79 57.4567 77.9158 57.4567 76.5783C57.4567 75.2407 58.5587 74.1565 59.9175 74.1565H73.0056C74.1486 74.1565 75.0784 73.2415 75.0784 72.1169V62.1655C74.2341 62.274 73.434 62.3295 72.6993 62.3295C64.6708 62.3295 58.1389 55.9014 58.1389 48C58.1389 40.099 64.6707 33.6707 72.6993 33.6707C73.434 33.6707 74.2341 33.7262 75.0784 33.8346V23.8832C75.0784 22.7585 74.1486 21.8436 73.0056 21.8436H23.9944C22.8514 21.8436 21.9216 22.7586 21.9216 23.8832V26.3445C21.9216 27.682 20.8196 28.7662 19.4608 28.7662C18.102 28.7662 17 27.682 17 26.3445V23.8832C17 20.0878 20.1376 17 23.9944 17H73.0056C76.8625 17 80 20.0878 80 23.8832V36.7636C80 37.5093 79.6507 38.2135 79.0535 38.6724C78.456 39.1316 77.6774 39.2938 76.9422 39.1133C75.3499 38.7214 73.8829 38.5143 72.6991 38.5143C67.3842 38.5143 63.0605 42.7696 63.0605 48C63.0605 53.2304 67.3842 57.486 72.6991 57.486C73.8831 57.486 75.3499 57.2789 76.9422 56.8873C77.6775 56.7059 78.456 56.8689 79.0535 57.3279C79.6507 57.7868 80 58.4909 80 59.2367V72.1171C80 75.9122 76.8624 79 73.0056 79ZM37.0821 79H23.9944C20.1375 79 17 75.9122 17 72.1168V56.8144C17 55.4768 18.102 54.3926 19.4608 54.3926C20.8196 54.3926 21.9216 55.4768 21.9216 56.8144V72.1166C21.9216 73.2414 22.8514 74.1562 23.9944 74.1562H34.1063C33.996 73.3253 33.9394 72.5379 33.9394 71.8151C33.9394 63.9141 40.4712 57.4858 48.4999 57.4858C49.8587 57.4858 50.9607 58.57 50.9607 59.9076C50.9607 61.2451 49.8587 62.3293 48.4999 62.3293C43.185 62.3293 38.8611 66.5846 38.8611 71.815C38.8611 72.9797 39.0716 74.4236 39.4697 75.9907C39.6535 76.7141 39.4885 77.4805 39.0221 78.0686C38.5557 78.6563 37.8399 79 37.0821 79Z" fill="url(#paint0_linear_0_44)"/>
<path d="M48 27C54.6274 27 60 21.4036 60 14.5C60 7.59644 54.6274 2 48 2C41.3726 2 36 7.59644 36 14.5C36 21.4036 41.3726 27 48 27Z" fill="#FF7D7D"/>
<path d="M48.5 29C40.5046 29 34 22.4954 34 14.5C34 6.50459 40.5044 0 48.5 0C56.4956 0 63 6.50459 63 14.5C63 22.4954 56.4951 29 48.5 29ZM48.5 4.874C43.1923 4.874 38.874 9.1923 38.874 14.5C38.874 19.8077 43.1923 24.126 48.5 24.126C53.8077 24.126 58.126 19.8077 58.126 14.5C58.126 9.1923 53.8077 4.874 48.5 4.874Z" fill="url(#paint1_linear_0_44)"/>
<path d="M15 60C21.6274 60 27 54.4036 27 47.5C27 40.5964 21.6274 35 15 35C8.37258 35 3 40.5964 3 47.5C3 54.4036 8.37258 60 15 60Z" fill="#FF7D7D"/>
<path d="M14.5 62C6.50459 62 0 55.4954 0 47.5C0 39.5046 6.50459 33 14.5 33C22.4954 33 29 39.5046 29 47.5C29 55.4954 22.4954 62 14.5 62ZM14.5 37.874C9.1923 37.874 4.874 42.1923 4.874 47.5C4.874 52.8077 9.1923 57.126 14.5 57.126C19.8077 57.126 24.126 52.8077 24.126 47.5C24.126 42.1923 19.8077 37.874 14.5 37.874Z" fill="url(#paint2_linear_0_44)"/>
<defs>
<linearGradient id="paint0_linear_0_44" x1="48.5" y1="17" x2="48.5" y2="79" gradientUnits="userSpaceOnUse">
<stop stop-color="#E80B0B"/>
<stop offset="1" stop-color="#650D0D"/>
</linearGradient>
<linearGradient id="paint1_linear_0_44" x1="48.5" y1="0" x2="48.5" y2="29" gradientUnits="userSpaceOnUse">
<stop stop-color="#E80B0B"/>
<stop offset="1" stop-color="#650D0D"/>
</linearGradient>
<linearGradient id="paint2_linear_0_44" x1="14.5" y1="33" x2="14.5" y2="62" gradientUnits="userSpaceOnUse">
<stop stop-color="#E80B0B"/>
<stop offset="1" stop-color="#650D0D"/>
</linearGradient>
</defs>
</svg>
