<svg width="128" height="56" viewBox="0 0 128 56" fill="none" xmlns="http://www.w3.org/2000/svg">
<path d="M1.89241 21.3072C1.01301 20.372 0.38024 19.3073 0.139252 18.0408C-0.275078 15.8697 0.225217 13.9198 1.77402 12.3263C3.82876 10.2122 5.96101 8.17056 8.05381 6.09269C8.19051 5.95769 8.26238 5.97856 8.38499 6.10104C9.02762 6.74541 9.66885 7.38979 10.3298 8.01468C10.5313 8.20535 10.4961 8.30138 10.3171 8.47535C8.32016 10.4349 6.32884 12.4015 4.33893 14.3694C3.2876 15.409 3.01561 16.766 3.58778 18.07C3.73857 18.4138 3.95137 18.7158 4.23323 18.9677C4.97733 19.768 5.76654 20.5251 6.55996 21.2752C8.03267 22.7338 9.50397 24.1923 10.9767 25.6509C11.539 26.2075 12.0985 26.7698 12.6706 27.3154C12.8299 27.4671 12.82 27.5506 12.6664 27.6981C12.0195 28.3202 11.3783 28.9465 10.7526 29.5895C10.5736 29.7732 10.4834 29.7802 10.296 29.5923C8.3723 27.6786 6.43877 25.7747 4.50663 23.8694C4.41644 23.7803 4.3192 23.6968 4.22478 23.6106C3.47503 22.8187 2.69852 22.049 1.89241 21.3072Z" fill="#EA3568"/>
<path d="M32.8203 25.3885C32.5138 27.2332 31.5643 28.6273 29.9905 29.5728C27.2434 31.2247 22.8905 31.1876 20.3258 29.0871C18.7859 27.8264 17.9379 26.1857 17.6295 24.2688C17.3587 22.5872 17.4528 20.9169 18.0714 19.3095C19.1375 16.5397 21.1532 14.8953 24.1353 14.4559C25.8219 14.2075 27.4653 14.3799 29.0334 15.0918C30.9645 15.9706 32.0663 17.4834 32.5251 19.4967C32.5871 19.7656 32.4856 19.8082 32.243 19.8064C31.3518 19.7952 30.4587 19.7952 29.5674 19.8064C29.3606 19.8101 29.2553 19.7433 29.1913 19.5561C28.129 16.4897 23.7103 16.4526 21.9053 18.7737C20.1829 20.9892 20.166 24.2465 21.9071 26.36C22.8717 27.5317 24.1804 27.9896 25.679 27.9432C26.5477 27.9173 27.3769 27.7208 28.1139 27.2313C28.7138 26.8327 29.1556 26.3044 29.4339 25.6499C29.4978 25.4979 29.5411 25.3811 29.7479 25.383C30.7633 25.3941 31.7805 25.3885 32.8203 25.3885Z" fill="#F0F0F0"/>
<path d="M1.91854 21.3877C2.73469 22.1289 3.52368 22.8965 4.28695 23.6892C2.98339 25.0701 3.01913 26.9446 4.38987 28.2852C6.41239 30.2627 8.44205 32.2318 10.4774 34.1982C10.6532 34.3678 10.719 34.5347 10.7176 34.7725C10.7061 36.1576 10.7119 37.5426 10.7119 39C10.526 38.8373 10.3845 38.7233 10.2545 38.5981C7.51012 35.9323 4.77865 33.2511 2.02002 30.6006C-0.710026 27.9765 -0.602824 23.8241 1.91854 21.3877Z" fill="#F0F0F0"/>
<path d="M125.01 20.1401C125.01 18.3381 125.029 16.6139 124.997 14.8916C124.99 14.4356 125.114 14.3188 125.561 14.3466C126.248 14.3874 126.938 14.3688 127.626 14.3521C127.897 14.3447 128.002 14.3966 128 14.6988C127.989 19.849 127.991 24.9992 128 30.1494C128 30.4331 127.928 30.5202 127.637 30.511C127.043 30.4887 126.449 30.4943 125.855 30.5091C125.64 30.5147 125.55 30.4535 125.526 30.2384C125.495 29.964 125.413 29.6971 125.371 29.4227C125.33 29.1502 125.215 29.0686 125.027 29.3003C123.425 31.2562 120.093 31.1265 118.207 29.5228C117.055 28.5421 116.47 27.2443 116.306 25.7742C116.111 24.0129 116.338 22.3296 117.478 20.8742C118.672 19.3485 120.296 18.7904 122.188 18.9462C123.427 19.0444 124.112 19.3726 125.01 20.1401ZM125.01 24.8268C125.023 24.4393 124.982 24.0574 124.892 23.6792C124.578 22.3555 123.728 21.5824 122.316 21.4582C121.201 21.3581 120.154 21.816 119.593 23.0229C119.031 24.2317 119.035 25.4868 119.635 26.6807C120.441 28.2844 122.506 28.7275 123.892 27.604C124.766 26.8939 125.005 25.8965 125.01 24.8268Z" fill="#F0F0F0"/>
<path d="M78.4866 22.5354C78.4866 20.0214 78.4941 17.5057 78.479 14.9917C78.4772 14.6562 78.543 14.5542 78.9077 14.5561C82.2415 14.5727 85.5752 14.5709 88.9089 14.5579C89.2549 14.5561 89.411 14.6098 89.3884 15.0029C89.3508 15.648 89.3565 16.2987 89.3865 16.9458C89.4016 17.2869 89.2775 17.3425 88.9654 17.3407C86.6338 17.3277 84.3023 17.3407 81.9688 17.3258C81.6342 17.324 81.5119 17.3796 81.5195 17.7467C81.5477 18.8868 81.542 20.0288 81.5213 21.1709C81.5157 21.5009 81.621 21.5824 81.9444 21.5787C83.9319 21.5639 85.9193 21.5806 87.9068 21.5639C88.2602 21.5602 88.3637 21.6492 88.3449 21.9977C88.3129 22.5984 88.3129 23.2009 88.3449 23.8016C88.3637 24.152 88.217 24.1928 87.9143 24.1909C85.9419 24.1779 83.9695 24.1965 81.9989 24.1742C81.6003 24.1705 81.5138 24.2781 81.5176 24.6581C81.5401 26.4787 81.5213 28.2992 81.5326 30.1198C81.5345 30.4053 81.4818 30.5221 81.1566 30.5128C80.3913 30.4868 79.6223 30.4868 78.857 30.5128C78.5373 30.5239 78.4772 30.4145 78.479 30.1253C78.4903 27.5947 78.4866 25.0641 78.4866 22.5354Z" fill="#F0F0F0"/>
<path d="M48.5921 18.9053C52.1232 18.9109 54.6842 21.3877 54.688 24.7953C54.6917 28.2343 52.1402 30.7278 48.5977 30.7482C45.0722 30.7686 42.4812 28.2324 42.4906 24.7675C42.4981 21.3377 45.0383 18.8998 48.5921 18.9053ZM48.5827 28.1954C50.4385 28.1954 51.7284 26.8031 51.7303 24.799C51.7321 22.8431 50.4348 21.4489 48.5958 21.4267C46.7983 21.4044 45.4407 22.8486 45.4351 24.786C45.4276 26.7678 46.7475 28.1972 48.5827 28.1954Z" fill="#F0F0F0"/>
<path d="M103.487 24.825C103.487 23.0507 103.494 21.2765 103.479 19.5042C103.477 19.2038 103.551 19.1 103.867 19.1112C104.523 19.1334 105.183 19.1408 105.837 19.1074C106.155 19.0926 106.243 19.2335 106.283 19.4875C106.322 19.7452 106.364 20.0047 106.413 20.2606C106.429 20.3459 106.439 20.4515 106.561 20.4664C106.659 20.4775 106.693 20.3941 106.738 20.3366C108.24 18.4308 111.333 18.6236 112.828 19.7137C113.832 20.446 114.313 21.4712 114.471 22.6577C114.65 23.9944 114.53 25.3385 114.55 26.6789C114.569 27.8357 114.545 28.9926 114.562 30.1494C114.565 30.4312 114.496 30.5202 114.203 30.5128C113.452 30.4924 112.7 30.4924 111.95 30.5128C111.643 30.5221 111.561 30.4331 111.564 30.129C111.58 28.1249 111.578 26.119 111.57 24.113C111.566 23.1583 111.307 22.3018 110.419 21.7808C108.699 20.7704 106.557 21.9217 106.499 23.9295C106.439 25.9484 106.465 27.9711 106.486 29.99C106.49 30.4127 106.381 30.5369 105.952 30.5147C105.251 30.4776 104.544 30.4887 103.84 30.5128C103.539 30.5221 103.483 30.4238 103.485 30.1476C103.492 28.3715 103.487 26.5973 103.487 24.825Z" fill="#F0F0F0"/>
<path d="M101.227 24.8155C101.227 26.5749 101.214 28.3343 101.238 30.0918C101.244 30.457 101.131 30.5238 100.796 30.5108C100.14 30.4848 99.4818 30.4941 98.8237 30.5089C98.5962 30.5145 98.4871 30.4626 98.4664 30.2197C98.4439 29.9602 98.3706 29.7062 98.316 29.4503C98.2953 29.3539 98.3405 29.2223 98.1863 29.1889C98.0678 29.1648 98.0227 29.2612 97.9663 29.3298C96.4978 31.1652 93.4649 31.0707 91.8704 29.9083C90.825 29.1481 90.3286 28.0562 90.2383 26.8103C90.0898 24.7321 90.1988 22.6464 90.1838 20.5645C90.18 20.0936 89.9676 19.4632 90.2853 19.1944C90.5599 18.9627 91.1804 19.1258 91.6485 19.1203C91.9926 19.1165 92.3405 19.1499 92.6808 19.111C93.0945 19.0646 93.1584 19.2296 93.1565 19.5986C93.1377 21.5878 93.134 23.579 93.1546 25.5701C93.164 26.4618 93.4104 27.2868 94.2283 27.8059C95.8942 28.8608 98.0171 27.8523 98.2182 25.9019C98.3423 24.6876 98.2521 23.4659 98.2653 22.2478C98.2765 21.3376 98.2822 20.4273 98.2596 19.517C98.2521 19.1833 98.363 19.1017 98.6846 19.111C99.4047 19.1332 100.125 19.1332 100.845 19.111C101.153 19.1017 101.238 19.187 101.234 19.4948C101.217 21.2671 101.227 23.0413 101.227 24.8155Z" fill="#F0F0F0"/>
<path d="M68.0567 26.8699C68.1977 26.8699 68.3388 26.881 68.4798 26.868C69.0533 26.8161 69.5478 26.8031 69.6869 27.567C69.7584 27.9563 70.1514 28.2066 70.5462 28.3586C71.21 28.6144 71.8944 28.6441 72.5638 28.4346C73.5171 28.1361 73.6994 27.1776 72.9417 26.5269C72.4773 26.1283 71.885 26.0152 71.3152 25.8595C70.565 25.6556 69.8035 25.4906 69.0683 25.2329C67.769 24.7787 67.0188 23.898 66.968 22.528C66.9192 21.1561 67.5265 20.0808 68.7769 19.482C70.6083 18.6069 72.4773 18.6737 74.271 19.6081C75.2488 20.1179 75.7847 20.9985 75.9671 22.0812C76.0103 22.3333 75.9426 22.4038 75.6869 22.4001C74.9517 22.3871 74.2146 22.3945 73.4795 22.3964C73.3008 22.3964 73.1936 22.3871 73.1128 22.1591C72.7499 21.1413 71.1141 20.7019 70.2341 21.3582C69.576 21.8495 69.6531 22.7245 70.4033 23.0879C71.1799 23.4642 72.0373 23.5847 72.8608 23.8128C73.8912 24.0983 74.8878 24.4449 75.5816 25.3237C76.8414 26.9144 76.2416 29.4283 74.3613 30.2088C72.419 31.0153 70.4503 30.9578 68.5606 30.0345C67.3836 29.4598 66.7969 28.429 66.6277 27.1554C66.5976 26.9311 66.6352 26.8513 66.8778 26.8643C67.2726 26.8829 67.6656 26.8699 68.0567 26.8699Z" fill="#F0F0F0"/>
<path d="M57.2094 26.8697C57.3185 26.8697 57.4294 26.879 57.5385 26.8679C58.1458 26.8067 58.6854 26.7937 58.8189 27.602C58.8697 27.9098 59.1875 28.1285 59.4902 28.275C60.2273 28.6328 61.0019 28.668 61.7653 28.4085C62.6077 28.1211 62.7826 27.209 62.1414 26.5953C61.6713 26.1448 61.0452 26.0243 60.4491 25.863C59.6688 25.6498 58.881 25.4719 58.1138 25.2086C55.8556 24.4337 55.6826 21.8159 56.7901 20.3995C57.3128 19.7302 58.001 19.3279 58.7964 19.1221C60.2592 18.7458 61.7089 18.8088 63.0984 19.4521C64.2285 19.975 64.8678 20.8685 65.0934 22.0736C65.1404 22.3239 65.0991 22.4055 64.8358 22.4017C64.0837 22.3906 63.3335 22.3925 62.5814 22.4017C62.3764 22.4036 62.3012 22.335 62.2279 22.1366C61.8556 21.1225 60.122 20.7054 59.3003 21.4155C58.7117 21.9253 58.8076 22.7373 59.5146 23.0858C60.2874 23.4678 61.1467 23.5883 61.9703 23.8144C62.602 23.9887 63.2188 24.1926 63.7866 24.5282C65.0163 25.2568 65.445 26.3747 65.3228 27.7151C65.2081 28.9609 64.5068 29.8453 63.3297 30.2846C61.4814 30.9743 59.618 30.9391 57.8224 30.1104C56.5588 29.5282 55.9703 28.4289 55.7653 27.107C55.7371 26.9198 55.8011 26.8642 55.9853 26.8697C56.3952 26.8771 56.8014 26.8697 57.2094 26.8697Z" fill="#F0F0F0"/>
<path d="M34.4148 24.8287C34.4148 23.0545 34.4204 21.2803 34.4091 19.5042C34.4073 19.215 34.4637 19.0945 34.7908 19.1093C35.447 19.1353 36.1051 19.1279 36.7632 19.1112C37.0208 19.1056 37.1261 19.189 37.1562 19.4393C37.1995 19.8064 37.2747 20.1679 37.3386 20.5313C37.3518 20.6017 37.3198 20.6963 37.4157 20.7278C37.5304 20.7667 37.583 20.6796 37.6357 20.6017C37.662 20.5628 37.6902 20.5276 37.7147 20.4868C38.6341 19.0111 40.0895 18.8331 41.6501 18.898C41.8325 18.9054 41.84 19.0074 41.84 19.1408C41.8381 19.9436 41.8306 20.7463 41.8438 21.5472C41.8475 21.7845 41.7234 21.7808 41.5504 21.7734C40.9262 21.7493 40.2963 21.6714 39.6814 21.8142C38.3728 22.1182 37.6 23.0174 37.4345 24.3912C37.2784 25.6833 37.3894 26.9811 37.3612 28.2751C37.348 28.9073 37.3461 29.5414 37.3649 30.1736C37.3725 30.4387 37.2878 30.511 37.0246 30.5054C36.2744 30.4887 35.5223 30.485 34.7701 30.5073C34.4768 30.5165 34.4054 30.4331 34.4091 30.1495C34.4223 28.3771 34.4148 26.6029 34.4148 24.8287Z" fill="#F0F0F0"/>
<path d="M6.67121 21.2022C5.86962 20.4588 5.07371 19.7113 4.32471 18.9197C6.26616 17.0488 8.2076 15.1765 10.1505 13.3056C10.3097 13.1528 10.4745 13.0069 10.6365 12.8596C10.7616 12.9325 10.7048 13.033 10.7048 13.1129C10.709 14.429 10.7076 15.7437 10.709 17.0598C10.709 17.2112 10.7005 17.3406 10.5726 17.4618C9.26787 18.7036 7.97025 19.9536 6.67121 21.2022Z" fill="#F0F0F0"/>
<path d="M23.1847 39.4447V40.3636H20.1664V42.3893H22.5197V43.3083H20.1664V46.3123H19V39.4447H23.1847Z" fill="#F0F0F0"/>
<path d="M26.711 46.4012C26.179 46.4012 25.6981 46.2859 25.2684 46.0553C24.8386 45.8182 24.501 45.4888 24.2554 45.0672C24.0099 44.639 23.8871 44.1449 23.8871 43.585C23.8871 43.0316 24.0133 42.5408 24.2657 42.1126C24.5181 41.6845 24.8625 41.3551 25.2991 41.1245C25.7356 40.8939 26.2233 40.7787 26.7622 40.7787C27.3011 40.7787 27.7888 40.8939 28.2253 41.1245C28.6619 41.3551 29.0063 41.6845 29.2587 42.1126C29.5111 42.5408 29.6373 43.0316 29.6373 43.585C29.6373 44.1383 29.5077 44.6291 29.2485 45.0573C28.9893 45.4855 28.6346 45.8182 28.1844 46.0553C27.741 46.2859 27.2499 46.4012 26.711 46.4012ZM26.711 45.4229C27.0112 45.4229 27.2908 45.3538 27.55 45.2154C27.816 45.0771 28.0309 44.8696 28.1946 44.5929C28.3583 44.3162 28.4402 43.9802 28.4402 43.585C28.4402 43.1897 28.3617 42.857 28.2048 42.587C28.048 42.3103 27.8399 42.1028 27.5807 41.9644C27.3215 41.8261 27.0419 41.7569 26.7417 41.7569C26.4416 41.7569 26.1619 41.8261 25.9027 41.9644C25.6504 42.1028 25.4491 42.3103 25.2991 42.587C25.149 42.857 25.074 43.1897 25.074 43.585C25.074 44.1713 25.2274 44.6258 25.5344 44.9486C25.8482 45.2648 26.2404 45.4229 26.711 45.4229Z" fill="#F0F0F0"/>
<path d="M31.9567 41.6581C32.1273 41.3814 32.3523 41.1673 32.632 41.0158C32.9185 40.8577 33.2561 40.7787 33.6449 40.7787V41.9447H33.3482C32.8912 41.9447 32.5433 42.0567 32.3046 42.2806C32.0727 42.5046 31.9567 42.8933 31.9567 43.4466V46.3123H30.7903V40.8676H31.9567V41.6581Z" fill="#F0F0F0"/>
<path d="M41.662 44.9091H38.6846L38.173 46.3123H36.9554L39.5031 39.4348H40.8537L43.4013 46.3123H42.1735L41.662 44.9091ZM41.3345 43.9901L40.1784 40.7984L39.012 43.9901H41.3345Z" fill="#F0F0F0"/>
<path d="M47.3534 40.7787C47.7968 40.7787 48.1924 40.8676 48.5403 41.0455C48.895 41.2233 49.1713 41.4868 49.3691 41.836C49.5669 42.1851 49.6658 42.6067 49.6658 43.1008V46.3123H48.5096V43.2688C48.5096 42.7813 48.3834 42.4091 48.131 42.1522C47.8787 41.8887 47.5342 41.7569 47.0977 41.7569C46.6611 41.7569 46.3132 41.8887 46.054 42.1522C45.8017 42.4091 45.6755 42.7813 45.6755 43.2688V46.3123H44.5091V40.8676H45.6755V41.4901C45.8665 41.2661 46.1086 41.0916 46.4019 40.9664C46.702 40.8412 47.0192 40.7787 47.3534 40.7787Z" fill="#F0F0F0"/>
<path d="M53.425 40.7787C53.8616 40.7787 54.247 40.8643 54.5812 41.0356C54.9222 41.2003 55.1883 41.4078 55.3793 41.6581V40.8676H56.5559V46.4012C56.5559 46.9018 56.4468 47.3465 56.2285 47.7352C56.0102 48.1304 55.693 48.4401 55.2769 48.664C54.8677 48.888 54.3766 49 53.8036 49C53.0396 49 52.4053 48.8254 51.9005 48.4763C51.3958 48.1337 51.1093 47.666 51.0411 47.0731H52.1972C52.2859 47.3564 52.4735 47.5837 52.76 47.7549C53.0533 47.9328 53.4011 48.0217 53.8036 48.0217C54.2742 48.0217 54.6528 47.8834 54.9393 47.6067C55.2326 47.33 55.3793 46.9282 55.3793 46.4012V45.4921C55.1814 45.749 54.912 45.9664 54.571 46.1443C54.2367 46.3155 53.8548 46.4012 53.425 46.4012C52.9339 46.4012 52.4837 46.2826 52.0745 46.0455C51.672 45.8017 51.3514 45.4657 51.1127 45.0375C50.8808 44.6028 50.7648 44.112 50.7648 43.5652C50.7648 43.0184 50.8808 42.5343 51.1127 42.1126C51.3514 41.691 51.672 41.365 52.0745 41.1344C52.4837 40.8972 52.9339 40.7787 53.425 40.7787ZM55.3793 43.585C55.3793 43.2095 55.2974 42.8834 55.1337 42.6067C54.9768 42.33 54.7688 42.1192 54.5096 41.9743C54.2504 41.8294 53.9707 41.7569 53.6706 41.7569C53.3705 41.7569 53.0908 41.8294 52.8316 41.9743C52.5724 42.1126 52.3609 42.3202 52.1972 42.5968C52.0403 42.8669 51.9619 43.1897 51.9619 43.5652C51.9619 43.9407 52.0403 44.2701 52.1972 44.5534C52.3609 44.8366 52.5724 45.054 52.8316 45.2055C53.0976 45.3505 53.3773 45.4229 53.6706 45.4229C53.9707 45.4229 54.2504 45.3505 54.5096 45.2055C54.7688 45.0606 54.9768 44.8498 55.1337 44.5731C55.2974 44.2899 55.3793 43.9605 55.3793 43.585Z" fill="#F0F0F0"/>
<path d="M63.2549 43.4565C63.2549 43.6607 63.2412 43.8452 63.2139 44.0099H58.9064C58.9406 44.4447 59.1077 44.7938 59.4078 45.0573C59.7079 45.3208 60.0763 45.4526 60.5128 45.4526C61.1403 45.4526 61.5837 45.1989 61.8429 44.6917H63.1014C62.9309 45.1924 62.6205 45.6041 62.1703 45.9269C61.727 46.2431 61.1744 46.4012 60.5128 46.4012C59.9739 46.4012 59.4896 46.2859 59.0599 46.0553C58.637 45.8182 58.3028 45.4888 58.0572 45.0672C57.8185 44.639 57.6991 44.1449 57.6991 43.585C57.6991 43.025 57.8151 42.5343 58.047 42.1126C58.2857 41.6845 58.6166 41.3551 59.0395 41.1245C59.4692 40.8939 59.9603 40.7787 60.5128 40.7787C61.0448 40.7787 61.5189 40.8906 61.935 41.1146C62.3511 41.3386 62.6751 41.6548 62.907 42.0632C63.1389 42.4651 63.2549 42.9295 63.2549 43.4565ZM62.0373 43.1008C62.0305 42.6858 61.877 42.3531 61.5769 42.1028C61.2768 41.8524 60.905 41.7273 60.4617 41.7273C60.0592 41.7273 59.7147 41.8524 59.4283 42.1028C59.1418 42.3465 58.9712 42.6792 58.9167 43.1008H62.0373Z" fill="#F0F0F0"/>
<path d="M65.5691 39V46.3123H64.4027V39H65.5691Z" fill="#F0F0F0"/>
<path d="M69.1468 46.4012C68.7035 46.4012 68.3044 46.3254 67.9497 46.1739C67.6019 46.0158 67.3256 45.805 67.121 45.5415C66.9164 45.2714 66.8072 44.9717 66.7936 44.6423H68.0009C68.0214 44.8729 68.1339 45.0672 68.3385 45.2253C68.55 45.3768 68.8126 45.4526 69.1264 45.4526C69.4538 45.4526 69.7062 45.3933 69.8835 45.2747C70.0677 45.1495 70.1598 44.9914 70.1598 44.8004C70.1598 44.5962 70.0575 44.4447 69.8528 44.3458C69.655 44.247 69.3378 44.1383 68.9013 44.0198C68.4784 43.9078 68.1339 43.7991 67.8679 43.6937C67.6019 43.5883 67.37 43.4269 67.1721 43.2095C66.9812 42.9921 66.8857 42.7055 66.8857 42.3498C66.8857 42.0599 66.9743 41.7964 67.1517 41.5593C67.329 41.3155 67.5814 41.1245 67.9088 40.9862C68.243 40.8478 68.625 40.7787 69.0548 40.7787C69.6959 40.7787 70.2109 40.9368 70.5997 41.253C70.9953 41.5626 71.2068 41.9875 71.2341 42.5277H70.0677C70.0472 42.2839 69.9449 42.0896 69.7607 41.9447C69.5766 41.7997 69.3276 41.7273 69.0138 41.7273C68.7069 41.7273 68.4716 41.7833 68.3078 41.8953C68.1441 42.0072 68.0623 42.1555 68.0623 42.3399C68.0623 42.4848 68.1169 42.6067 68.226 42.7055C68.3351 42.8043 68.4681 42.8834 68.625 42.9427C68.7819 42.9954 69.0138 43.0646 69.3208 43.1502C69.73 43.2556 70.0643 43.3643 70.3235 43.4763C70.5895 43.5817 70.818 43.7398 71.009 43.9506C71.2 44.1614 71.2989 44.4414 71.3057 44.7905C71.3057 45.1001 71.217 45.3768 71.0397 45.6206C70.8623 45.8643 70.61 46.0553 70.2825 46.1937C69.962 46.332 69.5834 46.4012 69.1468 46.4012Z" fill="#F0F0F0"/>
<path d="M73.845 44.9585L72.607 47.6858H71.8498L72.5763 44.9585H73.845Z" fill="#F0F0F0"/>
<path d="M78.6884 41.6779C78.8862 41.4144 79.1556 41.2003 79.4967 41.0356C79.8445 40.8643 80.2299 40.7787 80.6528 40.7787C81.1508 40.7787 81.601 40.8939 82.0034 41.1245C82.4058 41.3551 82.723 41.6845 82.955 42.1126C83.1869 42.5343 83.3028 43.0184 83.3028 43.5652C83.3028 44.112 83.1869 44.6028 82.955 45.0375C82.723 45.4657 82.4024 45.8017 81.9932 46.0455C81.5907 46.2826 81.144 46.4012 80.6528 46.4012C80.2163 46.4012 79.8275 46.3188 79.4864 46.1542C79.1522 45.9895 78.8862 45.7787 78.6884 45.5217V46.3123H77.522V39H78.6884V41.6779ZM82.116 43.5652C82.116 43.1897 82.0341 42.8669 81.8704 42.5968C81.7135 42.3202 81.5021 42.1126 81.236 41.9743C80.9768 41.8294 80.6972 41.7569 80.397 41.7569C80.1037 41.7569 79.8241 41.8294 79.5581 41.9743C79.2989 42.1192 79.0874 42.33 78.9237 42.6067C78.7668 42.8834 78.6884 43.2095 78.6884 43.585C78.6884 43.9605 78.7668 44.2899 78.9237 44.5731C79.0874 44.8498 79.2989 45.0606 79.5581 45.2055C79.8241 45.3505 80.1037 45.4229 80.397 45.4229C80.6972 45.4229 80.9768 45.3505 81.236 45.2055C81.5021 45.054 81.7135 44.8366 81.8704 44.5534C82.0341 44.2701 82.116 43.9407 82.116 43.5652Z" fill="#F0F0F0"/>
<path d="M89.5312 40.8676L86.0729 48.8715H84.8655L86.0115 46.2233L83.7912 40.8676H85.0906L86.6765 45.0178L88.3238 40.8676H89.5312Z" fill="#F0F0F0"/>
<path d="M97.3562 44.9091H94.3789L93.8673 46.3123H92.6497L95.1974 39.4348H96.548L99.0956 46.3123H97.8678L97.3562 44.9091ZM97.0288 43.9901L95.8727 40.7984L94.7063 43.9901H97.0288Z" fill="#F0F0F0"/>
<path d="M103.048 40.7787C103.491 40.7787 103.887 40.8676 104.235 41.0455C104.589 41.2233 104.866 41.4868 105.063 41.836C105.261 42.1851 105.36 42.6067 105.36 43.1008V46.3123H104.204V43.2688C104.204 42.7813 104.078 42.4091 103.825 42.1522C103.573 41.8887 103.228 41.7569 102.792 41.7569C102.355 41.7569 102.008 41.8887 101.748 42.1522C101.496 42.4091 101.37 42.7813 101.37 43.2688V46.3123H100.203V40.8676H101.37V41.4901C101.561 41.2661 101.803 41.0916 102.096 40.9664C102.396 40.8412 102.714 40.7787 103.048 40.7787Z" fill="#F0F0F0"/>
<path d="M109.119 40.7787C109.556 40.7787 109.941 40.8643 110.275 41.0356C110.617 41.2003 110.883 41.4078 111.074 41.6581V40.8676H112.25V46.4012C112.25 46.9018 112.141 47.3465 111.923 47.7352C111.704 48.1304 111.387 48.4401 110.971 48.664C110.562 48.888 110.071 49 109.498 49C108.734 49 108.1 48.8254 107.595 48.4763C107.09 48.1337 106.804 47.666 106.735 47.0731H107.892C107.98 47.3564 108.168 47.5837 108.454 47.7549C108.748 47.9328 109.095 48.0217 109.498 48.0217C109.969 48.0217 110.347 47.8834 110.634 47.6067C110.927 47.33 111.074 46.9282 111.074 46.4012V45.4921C110.876 45.749 110.606 45.9664 110.265 46.1443C109.931 46.3155 109.549 46.4012 109.119 46.4012C108.628 46.4012 108.178 46.2826 107.769 46.0455C107.366 45.8017 107.046 45.4657 106.807 45.0375C106.575 44.6028 106.459 44.112 106.459 43.5652C106.459 43.0184 106.575 42.5343 106.807 42.1126C107.046 41.691 107.366 41.365 107.769 41.1344C108.178 40.8972 108.628 40.7787 109.119 40.7787ZM111.074 43.585C111.074 43.2095 110.992 42.8834 110.828 42.6067C110.671 42.33 110.463 42.1192 110.204 41.9743C109.945 41.8294 109.665 41.7569 109.365 41.7569C109.065 41.7569 108.785 41.8294 108.526 41.9743C108.267 42.1126 108.055 42.3202 107.892 42.5968C107.735 42.8669 107.656 43.1897 107.656 43.5652C107.656 43.9407 107.735 44.2701 107.892 44.5534C108.055 44.8366 108.267 45.054 108.526 45.2055C108.792 45.3505 109.072 45.4229 109.365 45.4229C109.665 45.4229 109.945 45.3505 110.204 45.2055C110.463 45.0606 110.671 44.8498 110.828 44.5731C110.992 44.2899 111.074 43.9605 111.074 43.585Z" fill="#F0F0F0"/>
<path d="M118.949 43.4565C118.949 43.6607 118.936 43.8452 118.908 44.0099H114.601C114.635 44.4447 114.802 44.7938 115.102 45.0573C115.402 45.3208 115.771 45.4526 116.207 45.4526C116.835 45.4526 117.278 45.1989 117.537 44.6917H118.796C118.625 45.1924 118.315 45.6041 117.865 45.9269C117.421 46.2431 116.869 46.4012 116.207 46.4012C115.668 46.4012 115.184 46.2859 114.754 46.0553C114.331 45.8182 113.997 45.4888 113.752 45.0672C113.513 44.639 113.393 44.1449 113.393 43.585C113.393 43.025 113.509 42.5343 113.741 42.1126C113.98 41.6845 114.311 41.3551 114.734 41.1245C115.163 40.8939 115.655 40.7787 116.207 40.7787C116.739 40.7787 117.213 40.8906 117.629 41.1146C118.045 41.3386 118.369 41.6548 118.601 42.0632C118.833 42.4651 118.949 42.9295 118.949 43.4565ZM117.732 43.1008C117.725 42.6858 117.571 42.3531 117.271 42.1028C116.971 41.8524 116.599 41.7273 116.156 41.7273C115.753 41.7273 115.409 41.8524 115.123 42.1028C114.836 42.3465 114.666 42.6792 114.611 43.1008H117.732Z" fill="#F0F0F0"/>
<path d="M121.263 39V46.3123H120.097V39H121.263Z" fill="#F0F0F0"/>
<path d="M124.841 46.4012C124.398 46.4012 123.999 46.3254 123.644 46.1739C123.296 46.0158 123.02 45.805 122.815 45.5415C122.611 45.2714 122.502 44.9717 122.488 44.6423H123.695C123.716 44.8729 123.828 45.0672 124.033 45.2253C124.244 45.3768 124.507 45.4526 124.821 45.4526C125.148 45.4526 125.4 45.3933 125.578 45.2747C125.762 45.1495 125.854 44.9914 125.854 44.8004C125.854 44.5962 125.752 44.4447 125.547 44.3458C125.349 44.247 125.032 44.1383 124.596 44.0198C124.173 43.9078 123.828 43.7991 123.562 43.6937C123.296 43.5883 123.064 43.4269 122.866 43.2095C122.675 42.9921 122.58 42.7055 122.58 42.3498C122.58 42.0599 122.669 41.7964 122.846 41.5593C123.023 41.3155 123.276 41.1245 123.603 40.9862C123.937 40.8478 124.319 40.7787 124.749 40.7787C125.39 40.7787 125.905 40.9368 126.294 41.253C126.69 41.5626 126.901 41.9875 126.928 42.5277H125.762C125.742 42.2839 125.639 42.0896 125.455 41.9447C125.271 41.7997 125.022 41.7273 124.708 41.7273C124.401 41.7273 124.166 41.7833 124.002 41.8953C123.838 42.0072 123.757 42.1555 123.757 42.3399C123.757 42.4848 123.811 42.6067 123.92 42.7055C124.029 42.8043 124.162 42.8834 124.319 42.9427C124.476 42.9954 124.708 43.0646 125.015 43.1502C125.424 43.2556 125.759 43.3643 126.018 43.4763C126.284 43.5817 126.512 43.7398 126.703 43.9506C126.894 44.1614 126.993 44.4414 127 44.7905C127 45.1001 126.911 45.3768 126.734 45.6206C126.557 45.8643 126.304 46.0553 125.977 46.1937C125.656 46.332 125.278 46.4012 124.841 46.4012Z" fill="#F0F0F0"/>
</svg>
